HIERARCHY
ROOT SpineBase
{
  OFFSET 0.000000 0.000000 0.000000
  CHANNELS 6 Xposition Yposition Zposition Zrotation Xrotation Yrotation
  JOINT SpineMid
  {
    OFFSET 0.000000 18.456020 0.000000
    CHANNELS 3 Zrotation Xrotation Yrotation
    JOINT SpineShoulder
    {
      OFFSET -0.130363 13.487705 -0.540130
      CHANNELS 3 Zrotation Xrotation Yrotation
      JOINT Neck
      {
        OFFSET -0.105538 4.356372 -0.437569
        CHANNELS 3 Zrotation Xrotation Yrotation
        JOINT Head
        {
          OFFSET -10.425381 7.362073 9.341309
          CHANNELS 3 Zrotation Xrotation Yrotation
          End Site
          {
            OFFSET 0 0 0
          }
        }
      }
      JOINT ShoulderLeft
      {
        OFFSET 0.043248 6.413612 -1.974009
        CHANNELS 3 Zrotation Xrotation Yrotation
        JOINT ElbowLeft
        {
          OFFSET -8.925735 -5.539041 -4.997213
          CHANNELS 3 Zrotation Xrotation Yrotation
          JOINT WristLeft
          {
            OFFSET 6.118219 -23.303220 -4.206275
            CHANNELS 3 Zrotation Xrotation Yrotation
            JOINT HandLeft
            {
              OFFSET -0.855554 -7.908903 5.672834
              CHANNELS 3 Zrotation Xrotation Yrotation
              JOINT HandTipLeft
              {
                OFFSET -0.578145 -5.607592 -4.817755
                CHANNELS 3 Zrotation Xrotation Yrotation
                End Site
                {
                  OFFSET 0 0 0
                }
              }
              JOINT ThumbLeft
              {
                OFFSET -1.372703 0.246832 -0.642127
                CHANNELS 3 Zrotation Xrotation Yrotation
                End Site
                {
                  OFFSET 0 0 0
                }
              }
            }
          }
        }
      }
      JOINT ShoulderRight
      {
        OFFSET -0.874091 4.359654 -3.623994
        CHANNELS 3 Zrotation Xrotation Yrotation
        JOINT ElbowRight
        {
          OFFSET -2.209329 23.475462 11.968545
          CHANNELS 3 Zrotation Xrotation Yrotation
          JOINT WristRight
          {
            OFFSET -1.651524 -27.662566 -10.212771
            CHANNELS 3 Zrotation Xrotation Yrotation
            JOINT HandRight
            {
              OFFSET 1.263406 -9.322350 -3.125092
              CHANNELS 3 Zrotation Xrotation Yrotation
              JOINT HandTipRight
              {
                OFFSET 2.887036 -5.258199 -5.115996
                CHANNELS 3 Zrotation Xrotation Yrotation
                End Site
                {
                  OFFSET 0 0 0
                }
              }
              JOINT ThumbRight
              {
                OFFSET 1.484385 2.629225 -4.899898
                CHANNELS 3 Zrotation Xrotation Yrotation
                End Site
                {
                  OFFSET 0 0 0
                }
              }
            }
          }
        }
      }
    }
  }
  JOINT HipLeft
  {
    OFFSET 2.197547 5.287408 -7.322173
    CHANNELS 3 Zrotation Xrotation Yrotation
    JOINT KneeLeft
    {
      OFFSET -10.485510 -28.572660 15.041976
      CHANNELS 3 Zrotation Xrotation Yrotation
      JOINT AnkleLeft
      {
        OFFSET 64.992733 31.397072 -31.471207
        CHANNELS 3 Zrotation Xrotation Yrotation
        JOINT FootLeft
        {
          OFFSET -2.976903 2.923571 -12.885897
          CHANNELS 3 Zrotation Xrotation Yrotation
          End Site
          {
            OFFSET 0 0 0
          }
        }
      }
    }
  }
  JOINT HipRight
  {
    OFFSET -3.752266 -7.415466 0.891461
    CHANNELS 3 Zrotation Xrotation Yrotation
    JOINT KneeRight
    {
      OFFSET 8.918865 38.534817 0.282024
      CHANNELS 3 Zrotation Xrotation Yrotation
      JOINT AnkleRight
      {
        OFFSET -24.305835 0.202629 -27.368469
        CHANNELS 3 Zrotation Xrotation Yrotation
        JOINT FootRight
        {
          OFFSET 4.792208 -2.068394 6.429383
          CHANNELS 3 Zrotation Xrotation Yrotation
          End Site
          {
            OFFSET 0 0 0
          }
        }
      }
    }
  }
}
MOTION
Frames: 11
Frame Time: 0.033333
106.695479 44.801181 442.565987 -0.000000 0.000000 -125.918912 -0.000000 0.000000 125.918912 -0.000000 0.000000 0.000000 -0.000000 0.000000 0.000000 0.000000 0.000000 0.000000 -0.000000 0.000000 0.000000 -0.000000 0.000000 0.000000 -0.000000 0.000000 0.000000 -0.000000 0.000000 0.000000 0.000000 0.000000 0.000000 0.000000 0.000000 0.000000 -0.000000 0.000000 0.000000 -0.000000 0.000000 0.000000 -0.000000 0.000000 0.000000 -0.000000 0.000000 0.000000 0.000000 0.000000 0.000000 0.000000 0.000000 0.000000 -0.000000 0.000000 125.918912 -0.000000 0.000000 0.000000 -0.000000 0.000000 0.000000 0.000000 0.000000 0.000000 -0.000000 0.000000 125.918912 -0.000000 0.000000 0.000000 -0.000000 0.000000 0.000000 0.000000 0.000000 0.000000
105.134076 42.586508 447.016918 -0.374563 -1.938830 -132.543617 0.039230 0.018768 132.502727 -0.019940 -0.031110 -0.054620 0.404100 2.012151 0.082383 0.000000 0.000000 0.000000 -4.631788 2.838827 3.247334 5.499060 -4.051242 -3.771155 1.364178 13.972429 1.020983 0.530958 -12.919511 -2.295288 0.000000 0.000000 0.000000 0.000000 0.000000 0.000000 0.404100 2.012151 0.082383 4.840261 10.464739 -2.770832 -3.088442 -3.798940 2.477428 -3.999458 -2.038857 4.156794 0.000000 0.000000 0.000000 0.000000 0.000000 0.000000 -3.941560 -2.692212 131.574082 -0.260940 -2.789137 0.868159 -0.000000 0.000000 0.000000 0.000000 0.000000 0.000000 -1.681930 -1.034758 132.522090 -0.000000 0.000000 0.000000 1.213087 -0.108725 3.424986 0.000000 0.000000 0.000000
103.824980 40.699947 450.797256 -0.654069 -3.538887 -144.425905 0.061149 0.047365 144.344020 -0.035052 -0.053671 -0.097074 0.701257 3.668574 0.137306 0.000000 0.000000 0.000000 -10.938227 6.210816 6.347350 12.048629 -9.492988 -6.493633 3.192335 27.403725 1.838636 -0.672387 -25.083248 -4.229330 0.000000 0.000000 0.000000 0.000000 0.000000 0.000000 0.701257 3.668574 0.137306 9.460845 18.650315 -5.850173 -5.979358 -6.403455 4.185327 -7.881392 -4.544619 7.141970 0.000000 0.000000 0.000000 0.000000 0.000000 0.000000 -6.454820 -6.843547 142.165466 -0.392849 -5.792379 1.849055 0.261314 -0.827500 0.300769 0.000000 0.000000 0.000000 -1.865320 -1.964723 144.577530 0.283751 0.854793 -0.202143 2.233774 -0.177181 6.220007 0.000000 0.000000 0.000000
102.768190 39.141500 453.907001 -0.840965 -4.812453 -164.801646 0.054006 0.089591 164.684580 -0.045651 -0.072277 -0.128238 0.897199 4.988599 0.172689 0.000000 0.000000 0.000000 -18.766720 10.082556 9.309066 19.652918 -15.966950 -7.589992 5.509969 38.246304 2.399888 -3.408612 -34.649344 -6.730157 0.000000 0.000000 0.000000 0.000000 0.000000 0.000000 0.897199 4.988599 0.172689 13.298923 24.055747 -8.601872 -8.467688 -7.722481 5.191233 -11.246374 -7.131952 9.012260 0.000000 0.000000 0.000000 0.000000 0.000000 0.000000 -5.320943 -12.830034 161.215058 -0.372587 -8.989704 2.953908 0.319888 -1.020942 0.358114 0.000000 0.000000 0.000000 -2.078184 -4.422103 164.686061 -0.000000 0.000000 0.000000 3.047843 -0.237036 8.349138 0.000000 0.000000 0.000000
101.963708 37.911166 456.346153 -0.936581 -5.769685 167.411727 0.004456 0.127645 -167.553847 -0.051971 -0.090465 -0.148774 0.995598 5.987953 0.194106 0.000000 0.000000 0.000000 -27.605222 14.290516 12.099807 28.228448 -22.738627 -6.546236 8.211509 45.300160 2.813811 -7.409532 -40.559362 -10.105892 0.000000 0.000000 0.000000 0.000000 0.000000 0.000000 0.995598 5.987953 0.194106 15.910505 26.795692 -10.489320 -10.496419 -8.048701 5.692680 -13.828550 -9.539672 9.990253 0.000000 0.000000 0.000000 0.000000 0.000000 0.000000 2.035113 -18.075086 -171.302765 -0.175911 -12.349898 4.194844 0.313330 -1.017296 0.333937 0.000000 0.000000 0.000000 0.342926 -5.834920 -167.441448 -0.000000 0.000000 0.000000 3.649706 -0.314166 9.798011 0.000000 0.000000 0.000000
101.411532 37.008945 458.114712 -0.941153 -6.417513 143.113164 -0.060709 0.135629 -143.267371 -0.054139 -0.110869 -0.159099 0.998217 6.677806 0.205148 0.000000 0.000000 0.000000 -36.648644 18.576900 14.612101 37.485845 -28.835843 -3.193744 10.989627 48.332335 3.386548 -11.999780 -42.682364 -13.890730 0.000000 0.000000 0.000000 0.000000 0.000000 0.000000 0.998217 6.677806 0.205148 17.039583 27.101195 -11.189669 -12.055280 -7.643407 5.874341 -15.480801 -11.676758 10.289633 0.000000 0.000000 0.000000 0.000000 0.000000 0.000000 11.954678 -18.974842 -146.658555 0.221486 -15.830229 5.584442 0.241339 -0.813833 0.229081 0.000000 0.000000 0.000000 4.329069 -6.203413 -143.142677 0.668905 -1.134167 0.264612 4.037961 -0.427102 10.564219 0.000000 0.000000 0.000000
101.667071 36.252436 459.497058 -0.814428 -7.034688 133.416877 -0.082602 0.123021 -133.568908 -0.055781 -0.100407 -0.159617 0.869879 7.283597 0.210004 0.000000 0.000000 0.000000 -30.422601 15.770150 14.019041 28.199854 -23.491695 -6.920408 14.047132 44.167197 3.019631 -14.705221 -42.631598 -13.880226 0.000000 0.000000 0.000000 0.000000 0.000000 0.000000 0.869879 7.283597 0.210004 16.430846 24.653671 -10.435450 -13.485692 -3.098180 6.216943 -16.665980 -19.360207 6.924495 0.000000 0.000000 0.000000 0.000000 0.000000 0.000000 17.275996 -18.659524 -137.037930 0.578937 -18.130383 6.560053 -0.000000 0.000000 0.000000 0.000000 0.000000 0.000000 6.351497 -6.292229 -133.501710 0.597513 -1.889338 0.443392 4.561050 -0.836062 10.981365 0.000000 0.000000 0.000000
101.943884 34.325458 460.578187 -0.825088 -8.191582 136.837762 0.011876 0.067551 -137.007693 -0.091190 0.067957 -0.171680 0.930357 8.169346 0.226840 0.000000 0.000000 0.000000 -43.913680 22.857918 17.148145 38.400827 -34.551010 -1.337841 21.649070 39.285719 5.169640 -23.155707 -36.426665 -16.833420 0.000000 0.000000 0.000000 0.000000 0.000000 0.000000 0.930357 8.169346 0.226840 13.922311 19.175801 -8.217043 -15.801229 -2.472086 6.188377 -11.678424 -14.606790 8.073052 0.000000 0.000000 0.000000 0.000000 0.000000 0.000000 18.058233 -20.086325 -140.782560 1.874031 -18.448695 7.511632 -0.284743 0.802417 -0.451029 0.000000 0.000000 0.000000 5.923409 -6.979614 -136.718993 0.346822 -0.939331 0.217883 6.681434 -1.770786 14.119555 0.000000 0.000000 0.000000
102.624860 38.533666 458.142001 -0.784931 -8.300416 110.046801 -0.099744 0.072053 -110.215886 -0.058441 -0.049543 -0.173397 0.834678 8.472526 0.229309 0.000000 0.000000 0.000000 -57.859642 29.203320 21.016324 57.358103 -37.514838 11.028305 20.664342 30.096214 9.080566 -27.510583 -31.251765 -16.385229 0.000000 0.000000 0.000000 0.000000 0.000000 0.000000 0.834678 8.472526 0.229309 9.816340 10.590038 -5.029429 -14.268956 -2.643506 5.336755 -12.168399 -12.737854 9.094598 0.000000 0.000000 0.000000 0.000000 0.000000 0.000000 38.303907 -15.845514 -117.533606 5.532791 -32.224972 14.609226 -0.519034 1.538910 -0.762285 0.000000 0.000000 0.000000 15.601721 -5.232687 -111.119413 1.406547 -8.089340 1.970984 6.659422 -2.146168 13.247528 0.000000 0.000000 0.000000
102.275607 37.901936 458.339796 -0.043618 -6.260609 108.740566 -0.305002 0.087297 -108.808298 0.011375 -0.364218 -0.105127 -0.003425 6.941739 0.169272 0.000000 0.000000 0.000000 -68.745471 33.275015 22.834571 75.338909 -34.789466 23.149695 20.259273 29.817056 12.794546 -33.890979 -28.869378 -21.840373 0.000000 0.000000 0.000000 0.000000 0.000000 0.000000 -0.003425 6.941739 0.169272 7.633132 4.155595 -3.315670 -16.207242 -1.738102 5.604219 -9.292202 -13.080191 7.113330 0.000000 0.000000 0.000000 0.000000 0.000000 0.000000 34.944405 -13.873877 -116.383589 3.930544 -30.803211 12.958671 -0.345718 0.993096 -0.531484 0.000000 0.000000 0.000000 16.430432 -4.223583 -110.514147 1.721065 -10.582211 2.613444 3.079939 -0.991917 6.698635 0.000000 0.000000 0.000000
101.803290 39.499784 457.093783 0.255892 -5.139756 107.713857 -0.371459 0.084592 -107.744484 0.036839 -0.474790 -0.070801 -0.337067 5.993499 0.129813 0.000000 0.000000 0.000000 -66.307425 37.686263 17.977097 77.369538 -31.214989 29.074645 11.819761 18.971960 13.732646 -19.910736 -18.705221 -17.416161 0.000000 0.000000 0.000000 0.000000 0.000000 0.000000 -0.337067 5.993499 0.129813 5.422655 -3.808321 -1.619982 -16.871244 -2.654386 5.262525 -6.413345 -10.923210 4.815523 0.000000 0.000000 0.000000 0.000000 0.000000 0.000000 34.575213 -12.832476 -116.049290 4.262761 -31.237478 13.343233 -0.344320 0.975328 -0.543603 0.000000 0.000000 0.000000 17.369196 -3.709405 -109.989245 2.086838 -12.439141 3.117433 1.772093 -0.578586 3.970949 0.000000 0.000000 0.000000
